<svg width="24" height="24" viewBox="0 0 24 24" fill="none" xmlns="http://www.w3.org/2000/svg">
<path fill-rule="evenodd" clip-rule="evenodd" d="M15.143 14.9474C16.3799 13.6279 17.1355 11.8643 17.1355 9.92692C17.1355 5.83822 13.77 2.52368 9.6183 2.52368C5.46665 2.52368 2.10107 5.83822 2.10107 9.92692C2.10107 14.0156 5.46665 17.3302 9.6183 17.3302C11.491 17.3302 13.2037 16.6558 14.5198 15.5401H14.7122V16.7834L20.1942 22.2654L21.0624 21.3972L21.8988 20.5609L16.4135 15.0756H15.143V14.9474ZM9.6183 15.0072C6.76934 15.0072 4.45981 12.7327 4.45981 9.92692C4.45981 7.12116 6.76934 4.84665 9.6183 4.84665C12.4673 4.84665 14.7768 7.12116 14.7768 9.92692C14.7768 12.7327 12.4673 15.0072 9.6183 15.0072Z" fill="#9BA0A5"/>
</svg>
