<svg width="24" height="24" viewBox="0 0 24 24" fill="none" xmlns="http://www.w3.org/2000/svg">
<rect x="11.0264" y="18.614" width="1.94695" height="3.12093" fill="#58A65C"/>
<path d="M18.8142 12.0001C18.8142 12.895 18.6379 13.7811 18.2955 14.6078C17.953 15.4346 17.4511 16.1858 16.8183 16.8186C16.1856 17.4513 15.4344 17.9533 14.6076 18.2957C13.7809 18.6382 12.8947 18.8144 11.9999 18.8144C11.105 18.8144 10.2189 18.6382 9.39214 18.2957C8.56539 17.9533 7.81419 17.4513 7.18142 16.8186C6.54865 16.1858 6.04671 15.4346 5.70426 14.6078C5.3618 13.7811 5.18555 12.895 5.18555 12.0001L7.1962 12.0001C7.1962 12.6309 7.32045 13.2556 7.56186 13.8384C7.80326 14.4212 8.1571 14.9508 8.60316 15.3968C9.04922 15.8429 9.57878 16.1967 10.1616 16.4381C10.7444 16.6795 11.369 16.8038 11.9999 16.8038C12.6307 16.8038 13.2554 16.6795 13.8382 16.4381C14.421 16.1967 14.9505 15.8429 15.3966 15.3968C15.8426 14.9508 16.1965 14.4212 16.4379 13.8384C16.6793 13.2556 16.8036 12.6309 16.8036 12.0001H18.8142Z" fill="#F1BF42"/>
<path d="M18.8142 12.0001C18.8142 13.313 18.4349 14.598 17.722 15.7005C17.009 16.8029 15.9928 17.676 14.7954 18.2146C13.5981 18.7532 12.2706 18.9345 10.9727 18.7366C9.67481 18.5387 8.4617 17.9701 7.47929 17.0991L8.81314 15.5946C9.50568 16.2086 10.3608 16.6094 11.2758 16.7489C12.1907 16.8884 13.1265 16.7606 13.9706 16.3809C14.8146 16.0013 15.531 15.3858 16.0336 14.6086C16.5362 13.8315 16.8036 12.9256 16.8036 12.0001H18.8142Z" fill="#D85140"/>
<rect x="9.0791" y="2.26538" width="5.84085" height="12.6552" rx="2.92043" fill="#5383EC"/>
</svg>
